<svg xmlns="http://www.w3.org/2000/svg" width="20" height="20" viewBox="0 0 5.292 5.292"><g style="opacity:.712"><path d="M160.491 26.688h62.964v181.507h-62.964z" style="display:inline;opacity:1;fill:#333;fill-opacity:1;stroke-width:31.981;stroke-dasharray:none" transform="matrix(.01034 0 0 .01034 0 .001)"/><path d="M159.101 171.482h136.328V294.17H159.101z" style="opacity:1;fill:#333;fill-opacity:1;stroke-width:31.981;stroke-dasharray:none" transform="matrix(.01034 0 0 .01034 0 .001)"/><path d="M271.504 196.27h107.832v102.313H271.504z" style="opacity:1;fill:#333;fill-opacity:1;stroke-width:31.981;stroke-dasharray:none" transform="matrix(.01034 0 0 .01034 0 .001)"/><path d="M270.035 232.338h178.521v148.721H270.035zm-248.012-7.317h58.836v58.403H22.023z" style="opacity:1;fill:#333;fill-opacity:1;stroke-width:31.981;stroke-dasharray:none" transform="matrix(.01034 0 0 .01034 0 .001)"/><path d="M37.472 240.964h64.388v74.996H37.472z" style="opacity:1;fill:#333;fill-opacity:1;stroke-width:31.981;stroke-dasharray:none" transform="matrix(.01034 0 0 .01034 0 .001)"/><path d="M65.845 273.915h331.7v64.901h-331.7z" style="opacity:1;fill:#333;fill-opacity:1;stroke-width:31.981;stroke-dasharray:none" transform="matrix(.01034 0 0 .01034 0 .001)"/><path d="M97.577 306.761h345.552v83.104H97.577z" style="opacity:1;fill:#333;fill-opacity:1;stroke-width:31.981;stroke-dasharray:none" transform="matrix(.01034 0 0 .01034 0 .001)"/><path d="M141.592 366.458h244.36v116.596h-244.36z" style="opacity:1;fill:#333;fill-opacity:1;stroke-width:31.981;stroke-dasharray:none" transform="matrix(.01034 0 0 .01034 0 .001)"/><path d="M112.984 381.031h59.66v55.872h-59.66zm-37.337-52.628h43.254v34.045H75.647zm306.285 52.871h40.944v39.357h-40.944z" style="opacity:1;fill:#333;fill-opacity:1;stroke-width:31.981;stroke-dasharray:none" transform="matrix(.01034 0 0 .01034 0 .001)"/><path d="M376.558 420.125h25.479v46.453h-25.479z" style="opacity:1;fill:#333;fill-opacity:1;stroke-width:31.981;stroke-dasharray:none" transform="matrix(.01034 0 0 .01034 0 .001)"/><path d="M384.573 408.205h37.134v32.025h-37.134zm19.109-33.139h34.38v31.149h-34.38z" style="opacity:1;fill:#333;fill-opacity:1;stroke-width:31.981;stroke-dasharray:none" transform="matrix(.01034 0 0 .01034 0 .001)"/></g><path d="M188.49 32.014A23.986 23.986 0 0 1 212.475 56v199.88a15.99 15.99 0 0 0 31.981 0v-81.007l2.75-.128c10.138-.384 20.372-.256 26.097.863 4.285.864 9.402 3.07 14.327 5.82 2.463 1.344 4.797 4.702 4.797 10.043v64.41a15.99 15.99 0 0 0 31.981 0v-50.05l3.39-.32c10.106-.768 18.677-.32 22.643 1.279 3.773 1.471 9.594 6.62 15.542 13.752 2.59 3.07 4.797 6.076 6.396 8.283v43.046a15.99 15.99 0 1 0 31.981 0v-31.98h10.938a31.98 31.98 0 0 1 31.82 35.178l-8.666 86.828a79.952 79.952 0 0 1-10.138 31.693l-44.613 78.097a15.99 15.99 0 0 1-13.88 8.06H168.278a15.99 15.99 0 0 1-14.296-8.827l-39.4-78.833-80.336-133.84a16.534 16.534 0 0 1 25.872-20.18l77.074 77.074a15.99 15.99 0 0 0 27.312-11.29V56.002a23.986 23.986 0 0 1 23.986-23.986Zm55.966 110.846V56a55.967 55.967 0 1 0-111.933 0v209.25l-49.794-49.794a48.515 48.515 0 0 0-75.89 59.229l79.664 132.816 38.856 77.714a47.971 47.971 0 0 0 42.919 26.512H369.82a47.971 47.971 0 0 0 41.639-24.177l44.613-78.066a111.933 111.933 0 0 0 14.2-44.421l8.667-86.828a63.962 63.962 0 0 0-63.642-70.326h-18.581a163.55 163.55 0 0 0-6.236-7.931c-6.109-7.324-16.31-18.165-28.144-22.899-11.64-4.669-27.055-4.221-37.033-3.453l-4.222.383a40.296 40.296 0 0 0-17.91-20.531 84.174 84.174 0 0 0-23.601-9.21c-9.914-1.984-23.634-1.856-33.58-1.472zm66.968 64.761z" style="display:inline;opacity:1;fill:#d5d5d5;fill-opacity:1;stroke-width:31.981;stroke-dasharray:none" transform="matrix(.01034 0 0 .01034 0 .001)"/></svg>