<svg xmlns="http://www.w3.org/2000/svg" xml:space="preserve" width="20" height="20" viewBox="0 0 5.29167 5.29167"><defs><filter id="g2ibye25fxm__a" width="1.6197" height="1.57919" x="-.30985" y="-.28959" style="color-interpolation-filters:sRGB"><feGaussianBlur stdDeviation="55.06677"/></filter></defs><g style="opacity:.902"><path d="M403.6821 375.06635h34.38047v31.14893H403.6821Zm-19.10889 33.13891h37.13392v32.02503h-37.13392zm-8.01501 11.91989h25.47935v46.45307H376.5582Zm5.3742-38.85107h40.94368v39.3567H381.9324ZM75.64706 328.40302h43.25406v34.04505H75.64706Zm37.33667 52.62826h59.65957v55.87234h-59.65957Zm28.60827-14.57321h244.36044v116.59574H141.592Zm-44.01503-59.69711h345.55194v83.10388H97.57697ZM65.8448 273.91489h331.69962v64.90112H65.8448ZM37.47184 240.9637h64.38799v74.99625H37.47184Zm-15.44931-15.94243h58.83604v58.403H22.02253Zm248.0125 7.31665h178.52065v148.7209H270.03503Zm1.46936-36.06758h107.8323v102.31289h-107.8323Zm-112.40301-24.78848h136.32791v122.68836H159.10138Zm1.38924-144.7935h62.9637v181.50688h-62.9637z" style="display:inline;opacity:1;fill:#333;stroke-width:31.981;filter:url(#g2ibye25fxm__a)" transform="translate(.00089 .00138) scale(.01034)"/><path d="M403.6821 375.06635h34.38047v31.14893H403.6821Zm-19.10889 33.13891h37.13392v32.02503h-37.13392zm-8.01501 11.91989h25.47935v46.45307H376.5582Zm5.3742-38.85107h40.94368v39.3567H381.9324ZM75.64706 328.40302h43.25406v34.04505H75.64706Zm37.33667 52.62826h59.65957v55.87234h-59.65957Zm28.60827-14.57321h244.36044v116.59574H141.592Zm-44.01503-59.69711h345.55194v83.10388H97.57697ZM65.8448 273.91489h331.69962v64.90112H65.8448ZM37.47184 240.9637h64.38799v74.99625H37.47184Zm-15.44931-15.94243h58.83604v58.403H22.02253Zm248.0125 7.31665h178.52065v148.7209H270.03503Zm1.46936-36.06758h107.8323v102.31289h-107.8323Zm-112.40301-24.78848h136.32791v122.68836H159.10138Zm1.38924-144.7935h62.9637v181.50688h-62.9637z" style="opacity:1;fill:#333;stroke-width:31.981" transform="translate(.00089 .00138) scale(.01034)"/></g><path d="M188.48955 32.01425a23.98565 23.98565 0 0 1 23.98562 23.98569V255.8802a15.99043 15.99043 0 0 0 31.98084 0v-81.00752l2.75032-.12761c10.13795-.38395 20.37192-.25634 26.09645.86333 4.28546.86333 9.40233 3.07016 14.32742 5.82051 2.4625 1.34316 4.79718 4.70117 4.79718 10.04196v64.40942a15.99043 15.99043 0 0 0 31.98081 0v-50.05l3.38999-.31958c10.10597-.76791 18.67684-.31958 22.6424 1.27924 3.77382 1.47112 9.59432 6.62004 15.54279 13.75175 2.59028 3.07015 4.79702 6.0764 6.39608 8.28311v43.04614a15.99043 15.99043 0 1 0 31.98084 0v-31.98083h10.93748a31.98086 31.98086 0 0 1 31.82093 35.17895l-8.66684 86.82802a79.95214 79.95214 0 0 1-10.13786 31.69308l-44.61335 78.09726a15.99043 15.99043 0 0 1-13.8797 8.05919H168.27763a15.99043 15.99043 0 0 1-14.29543-8.82678l-39.40042-78.83286-80.33591-133.83982a16.5341 16.5341 0 0 1 25.8725-20.17992l77.07386 77.07391a15.99043 15.99043 0 0 0 27.31168-11.28926V56.00028a23.98565 23.98565 0 0 1 23.98564-23.98568Zm55.96646 110.84566V55.99994a55.9665 55.9665 0 1 0-111.93299 0v209.25063l-49.79417-49.79412A48.51496 48.51496 0 0 0 6.83827 274.685L86.5026 407.50149l38.85674 77.71354a47.97128 47.97128 0 0 0 42.91829 26.51205h201.54332a47.97128 47.97128 0 0 0 41.63907-24.17754l44.61336-78.0653a111.933 111.933 0 0 0 14.19952-44.42136l8.66672-86.828a63.96172 63.96172 0 0 0-63.64185-70.32592h-18.58086a163.55009 163.55009 0 0 0-6.2363-7.93124c-6.10838-7.32369-16.31025-18.16518-28.14312-22.8983-11.64102-4.66921-27.05585-4.22146-37.03388-3.45389l-4.22147.38395a40.29588 40.29588 0 0 0-17.90928-20.53168 84.17361 84.17361 0 0 0-23.60183-9.21047c-9.91401-1.9829-23.6338-1.85496-33.57991-1.47123zm66.9679 64.76119z" style="display:inline;opacity:1;fill:#d5d5d5;fill-opacity:1;stroke-width:31.981;stroke-dasharray:none" transform="translate(.00089 .00138) scale(.01034)"/></svg>