<svg xmlns="http://www.w3.org/2000/svg" xml:space="preserve" width="20" height="20" viewBox="0 0 5.29167 5.29167"><defs><filter id="7lo8uw47f9__a" width="1.75865" height="1.35011" x="-.37932" y="-.17505" style="color-interpolation-filters:sRGB"><feGaussianBlur stdDeviation=".35528"/></filter></defs><g style="display:inline"><path d="M.71052.39812c0-.10346.08387-.18733.18733-.18733.32295 0 .58933.10753.77179.21206A1.64967 1.64967 0 0 1 1.83448.53a1.64971 1.64971 0 0 1 .16485-.10715 1.56044 1.56044 0 0 1 .7718-.21206c.24966.0001.24966.37476 0 .37466-.23904 0-.44098.0798-.58597.1626a1.30757 1.30757 0 0 0-.16335.11015v3.5757c.03747.02998.09292.07006.16335.11015.145.0828.34693.1626.58596.1626.2497.00008.2497.37474 0 .37466a1.56044 1.56044 0 0 1-.77179-.21206 1.7088 1.7088 0 0 1-.16485-.1064 1.7088 1.7088 0 0 1-.16484.10678 1.56044 1.56044 0 0 1-.7718.21205c-.24968-.00008-.24968-.37473 0-.37465.23904 0 .44098-.0798.58597-.1626a1.297 1.297 0 0 0 .16335-.11015V.8582A1.30754 1.30754 0 0 0 1.4838.74805a1.18616 1.18616 0 0 0-.58596-.1626C.79439.58545.71052.50158.71052.39812Z" style="fill:#333;fill-opacity:1;fill-rule:nonzero;stroke:#d5d5d5;stroke-width:0;stroke-dasharray:none;stroke-opacity:1;paint-order:stroke fill markers;filter:url(#7lo8uw47f9__a)" transform="translate(.05955 .0859) scale(.96754)"/><path d="M.71052.39812c0-.10346.08387-.18733.18733-.18733.32295 0 .58933.10753.77179.21206A1.64967 1.64967 0 0 1 1.83448.53a1.64971 1.64971 0 0 1 .16485-.10715 1.56044 1.56044 0 0 1 .7718-.21206c.24966.0001.24966.37476 0 .37466-.23904 0-.44098.0798-.58597.1626a1.30757 1.30757 0 0 0-.16335.11015v3.5757c.03747.02998.09292.07006.16335.11015.145.0828.34693.1626.58596.1626.2497.00008.2497.37474 0 .37466a1.56044 1.56044 0 0 1-.77179-.21206 1.7088 1.7088 0 0 1-.16485-.1064 1.7088 1.7088 0 0 1-.16484.10678 1.56044 1.56044 0 0 1-.7718.21205c-.24968-.00008-.24968-.37473 0-.37465.23904 0 .44098-.0798.58597-.1626a1.297 1.297 0 0 0 .16335-.11015V.8582A1.30754 1.30754 0 0 0 1.4838.74805a1.18616 1.18616 0 0 0-.58596-.1626C.79439.58545.71052.50158.71052.39812Z" style="display:inline;fill:#333;fill-opacity:1;fill-rule:nonzero;stroke:#d5d5d5;stroke-width:.47910353;stroke-dasharray:none;stroke-opacity:1;paint-order:stroke fill markers" transform="translate(.05955 .0859) scale(.96754)"/></g></svg>